<?xml version="1.0" encoding="utf-8"?>
<!DOCTYPE svg PUBLIC "-//W3C//DTD SVG 1.1//EN" "http://www.w3.org/Graphics/SVG/1.1/DTD/svg11.dtd">
<svg version="1.1" id="Layer_1" xmlns="http://www.w3.org/2000/svg" xmlns:xlink="http://www.w3.org/1999/xlink" x="0px" y="0px"
	 width="324px" height="261px" viewBox="0 0 324 261" enable-background="new 0 0 324 261" xml:space="preserve">
<path fill="none" stroke="#B48C00" stroke-width="1.5" stroke-linejoin="bevel" stroke-miterlimit="10" d="M198,162
	c0,29.823-24.177,54-54,54s-54-24.177-54-54"/>
<path fill="none" stroke="#B48C00" stroke-width="1.5" stroke-linejoin="bevel" stroke-miterlimit="10" d="M306,162
	c0,19.882-16.118,36-36,36c-19.882,0-36-16.118-36-36"/>
<path fill="none" stroke="#B48C00" stroke-width="1.5" stroke-linejoin="bevel" stroke-miterlimit="10" d="M270,162
	c0,19.882-16.118,36-36,36s-36-16.118-36-36"/>
<path fill="none" stroke="#B48C00" stroke-width="1.5" stroke-linejoin="bevel" stroke-miterlimit="10" d="M234,162
	c0,49.706-40.294,90-90,90s-90-40.294-90-90"/>
<path fill="none" stroke="#B48C00" stroke-width="1.5" stroke-linejoin="bevel" stroke-miterlimit="10" d="M162,162
	c0,39.765-32.235,72-72,72s-72-32.235-72-72"/>
<polyline fill="none" stroke="#B48C00" stroke-width="1.5" stroke-linejoin="bevel" stroke-miterlimit="10" points="198,162
	234,162 270,162 "/>
<line fill="none" stroke="#B48C00" stroke-width="1.5" stroke-linejoin="bevel" stroke-miterlimit="10" x1="126" y1="162" x2="162" y2="162"/>
<polyline fill="none" stroke="#B48C00" stroke-width="1.5" stroke-linejoin="bevel" stroke-miterlimit="10" points="18,162 54,162
	90,162 "/>
<polyline fill="none" stroke="#009246" stroke-width="3" stroke-linejoin="bevel" stroke-miterlimit="10" points="270,162 234,18
	306,162 "/>
<polyline fill="none" stroke="#009246" stroke-width="3" stroke-linejoin="bevel" stroke-miterlimit="10" points="198,162 234,18
	234,162 "/>
<polyline fill="none" stroke="#009246" stroke-width="3" stroke-linejoin="bevel" stroke-miterlimit="10" points="126,162 234,18
	162,162 "/>
<polyline fill="none" stroke="#009246" stroke-width="3" stroke-linejoin="bevel" stroke-miterlimit="10" points="54,162 234,18
	90,162 "/>
<polyline fill="none" stroke="#009246" stroke-width="3" stroke-linejoin="bevel" stroke-miterlimit="10" points="90,18 162,18
	234,18 18,162 "/>
<circle fill="#BC1E47" stroke="#231F20" stroke-linejoin="bevel" stroke-miterlimit="10" cx="90" cy="18" r="9"/>
<circle fill="#BC1E47" stroke="#231F20" stroke-linejoin="bevel" stroke-miterlimit="10" cx="162" cy="18" r="9"/>
<circle fill="#BC1E47" stroke="#231F20" stroke-linejoin="bevel" stroke-miterlimit="10" cx="234" cy="18" r="9"/>
<circle fill="#0081CD" stroke="#231F20" stroke-linejoin="bevel" stroke-miterlimit="10" cx="18" cy="162" r="9"/>
<circle fill="#0081CD" stroke="#231F20" stroke-linejoin="bevel" stroke-miterlimit="10" cx="54" cy="162" r="9"/>
<circle fill="#0081CD" stroke="#231F20" stroke-linejoin="bevel" stroke-miterlimit="10" cx="90" cy="162" r="9"/>
<circle fill="#0081CD" stroke="#231F20" stroke-linejoin="bevel" stroke-miterlimit="10" cx="126" cy="162" r="9"/>
<circle fill="#0081CD" stroke="#231F20" stroke-linejoin="bevel" stroke-miterlimit="10" cx="162" cy="162" r="9"/>
<circle fill="#0081CD" stroke="#231F20" stroke-linejoin="bevel" stroke-miterlimit="10" cx="198" cy="162" r="9"/>
<circle fill="#0081CD" stroke="#231F20" stroke-linejoin="bevel" stroke-miterlimit="10" cx="234" cy="162" r="9"/>
<circle fill="#0081CD" stroke="#231F20" stroke-linejoin="bevel" stroke-miterlimit="10" cx="270" cy="162" r="9"/>
<circle fill="#0081CD" stroke="#231F20" stroke-linejoin="bevel" stroke-miterlimit="10" cx="306" cy="162" r="9"/>
</svg>
